<mxfile host="app.diagrams.net" modified="2023-06-03T08:44:54.521Z" agent="Mozilla/5.0 (Windows NT 10.0; Win64; x64) AppleWebKit/537.36 (KHTML, like Gecko) Chrome/114.0.0.0 Safari/537.36" etag="tS3xggxYZ0w0GagJVlgv" version="21.3.7" type="github">
  <diagram id="C5RBs43oDa-KdzZeNtuy" name="Page-1">
    <mxGraphModel dx="632" dy="308" grid="1" gridSize="10" guides="1" tooltips="1" connect="1" arrows="1" fold="1" page="1" pageScale="1" pageWidth="827" pageHeight="1169" math="0" shadow="0">
      <root>
        <mxCell id="WIyWlLk6GJQsqaUBKTNV-0" />
        <mxCell id="WIyWlLk6GJQsqaUBKTNV-1" parent="WIyWlLk6GJQsqaUBKTNV-0" />
        <mxCell id="bSexsCzhhbst3zW8raIn-0" value="&lt;div style=&quot;text-align: left;&quot;&gt;&lt;span style=&quot;font-size: 18px; background-color: initial;&quot;&gt;gpfdist代码从两个角度看：&lt;/span&gt;&lt;/div&gt;&lt;font style=&quot;font-size: 18px;&quot;&gt;&lt;div style=&quot;text-align: left;&quot;&gt;&lt;span style=&quot;background-color: initial;&quot;&gt;（1）writable external table&lt;/span&gt;&lt;/div&gt;&lt;div style=&quot;text-align: left;&quot;&gt;&lt;span style=&quot;background-color: initial;&quot;&gt;（2）readable external table&lt;/span&gt;&lt;/div&gt;&lt;div style=&quot;text-align: left;&quot;&gt;&lt;span style=&quot;background-color: initial;&quot;&gt;&lt;br&gt;&lt;/span&gt;&lt;/div&gt;&lt;div style=&quot;text-align: left;&quot;&gt;&lt;ul style=&quot;box-sizing: inherit; margin: 0px; padding: 0px; list-style-type: none; color: rgb(29, 28, 29); font-family: Slack-Lato, Slack-Fractions, appleLogo, sans-serif; font-size: 15px; font-variant-ligatures: common-ligatures; background-color: rgb(248, 248, 248);&quot; data-border=&quot;0&quot; data-indent=&quot;0&quot; class=&quot;p-rich_text_list p-rich_text_list__bullet&quot; data-stringify-type=&quot;unordered-list&quot;&gt;&lt;li style=&quot;box-sizing: inherit; margin-bottom: 0px; list-style-type: none; margin-left: 28px;&quot; data-stringify-border=&quot;0&quot; data-stringify-indent=&quot;0&quot;&gt;fstream.c&lt;/li&gt;&lt;li style=&quot;box-sizing: inherit; margin-bottom: 0px; list-style-type: none; margin-left: 28px;&quot; data-stringify-border=&quot;0&quot; data-stringify-indent=&quot;0&quot;&gt;gfile.c&lt;/li&gt;&lt;li style=&quot;box-sizing: inherit; margin-bottom: 0px; list-style-type: none; margin-left: 28px;&quot; data-stringify-border=&quot;0&quot; data-stringify-indent=&quot;0&quot;&gt;gpfdist_helper.c&lt;/li&gt;&lt;li style=&quot;box-sizing: inherit; margin-bottom: 0px; list-style-type: none; margin-left: 28px;&quot; data-stringify-border=&quot;0&quot; data-stringify-indent=&quot;0&quot;&gt;gpfdist.c&lt;/li&gt;&lt;li style=&quot;box-sizing: inherit; margin-bottom: 0px; list-style-type: none; margin-left: 28px;&quot; data-stringify-border=&quot;0&quot; data-stringify-indent=&quot;0&quot;&gt;transform.c&lt;/li&gt;&lt;/ul&gt;&lt;/div&gt;&lt;/font&gt;" style="text;html=1;align=center;verticalAlign=middle;resizable=0;points=[];autosize=1;strokeColor=none;fillColor=none;" vertex="1" parent="WIyWlLk6GJQsqaUBKTNV-1">
          <mxGeometry x="350" y="40" width="250" height="190" as="geometry" />
        </mxCell>
        <mxCell id="bSexsCzhhbst3zW8raIn-6" style="edgeStyle=orthogonalEdgeStyle;rounded=0;orthogonalLoop=1;jettySize=auto;html=1;exitX=1;exitY=0.5;exitDx=0;exitDy=0;entryX=0;entryY=0.5;entryDx=0;entryDy=0;" edge="1" parent="WIyWlLk6GJQsqaUBKTNV-1" source="bSexsCzhhbst3zW8raIn-1" target="bSexsCzhhbst3zW8raIn-2">
          <mxGeometry relative="1" as="geometry" />
        </mxCell>
        <mxCell id="bSexsCzhhbst3zW8raIn-8" style="edgeStyle=orthogonalEdgeStyle;rounded=0;orthogonalLoop=1;jettySize=auto;html=1;exitX=1;exitY=0.5;exitDx=0;exitDy=0;entryX=0;entryY=0.5;entryDx=0;entryDy=0;" edge="1" parent="WIyWlLk6GJQsqaUBKTNV-1" source="bSexsCzhhbst3zW8raIn-1" target="bSexsCzhhbst3zW8raIn-3">
          <mxGeometry relative="1" as="geometry" />
        </mxCell>
        <mxCell id="bSexsCzhhbst3zW8raIn-1" value="main()" style="rounded=1;whiteSpace=wrap;html=1;" vertex="1" parent="WIyWlLk6GJQsqaUBKTNV-1">
          <mxGeometry x="50" y="320" width="80" height="20" as="geometry" />
        </mxCell>
        <mxCell id="bSexsCzhhbst3zW8raIn-2" value="gpfdist_init()" style="rounded=1;whiteSpace=wrap;html=1;" vertex="1" parent="WIyWlLk6GJQsqaUBKTNV-1">
          <mxGeometry x="190" y="290" width="100" height="20" as="geometry" />
        </mxCell>
        <mxCell id="bSexsCzhhbst3zW8raIn-9" style="edgeStyle=orthogonalEdgeStyle;rounded=0;orthogonalLoop=1;jettySize=auto;html=1;exitX=1;exitY=0.5;exitDx=0;exitDy=0;entryX=0;entryY=0.5;entryDx=0;entryDy=0;" edge="1" parent="WIyWlLk6GJQsqaUBKTNV-1" source="bSexsCzhhbst3zW8raIn-3" target="bSexsCzhhbst3zW8raIn-5">
          <mxGeometry relative="1" as="geometry" />
        </mxCell>
        <mxCell id="bSexsCzhhbst3zW8raIn-3" value="gpfdist_run()" style="rounded=1;whiteSpace=wrap;html=1;" vertex="1" parent="WIyWlLk6GJQsqaUBKTNV-1">
          <mxGeometry x="190" y="350" width="100" height="20" as="geometry" />
        </mxCell>
        <mxCell id="bSexsCzhhbst3zW8raIn-5" value="event_dispatch()" style="rounded=1;whiteSpace=wrap;html=1;" vertex="1" parent="WIyWlLk6GJQsqaUBKTNV-1">
          <mxGeometry x="320" y="350" width="100" height="20" as="geometry" />
        </mxCell>
        <mxCell id="bSexsCzhhbst3zW8raIn-10" value="setup_read()" style="rounded=1;whiteSpace=wrap;html=1;" vertex="1" parent="WIyWlLk6GJQsqaUBKTNV-1">
          <mxGeometry x="140" y="430" width="100" height="20" as="geometry" />
        </mxCell>
        <mxCell id="bSexsCzhhbst3zW8raIn-11" value="do_read_request()" style="rounded=1;whiteSpace=wrap;html=1;" vertex="1" parent="WIyWlLk6GJQsqaUBKTNV-1">
          <mxGeometry x="120" y="500" width="120" height="20" as="geometry" />
        </mxCell>
      </root>
    </mxGraphModel>
  </diagram>
</mxfile>
